<mxfile host="app.diagrams.net" agent="Mozilla/5.0 (Windows NT 10.0; Win64; x64) AppleWebKit/537.36 (KHTML, like Gecko) Chrome/131.0.0.0 Safari/537.36" version="24.8.6">
  <diagram name="PÃ¡gina-1" id="urmfWK1K8j16wALkBudS">
    <mxGraphModel grid="1" page="1" gridSize="10" guides="1" tooltips="1" connect="1" arrows="1" fold="1" pageScale="1" pageWidth="583" pageHeight="413" math="0" shadow="0">
      <root>
        <mxCell id="0" />
        <mxCell id="1" parent="0" />
        <mxCell id="ApOuU640VELkkD1KpvNs-15" style="edgeStyle=orthogonalEdgeStyle;rounded=0;orthogonalLoop=1;jettySize=auto;html=1;" edge="1" parent="1">
          <mxGeometry relative="1" as="geometry">
            <mxPoint x="503" y="150" as="targetPoint" />
            <mxPoint x="503" y="290" as="sourcePoint" />
          </mxGeometry>
        </mxCell>
        <mxCell id="ApOuU640VELkkD1KpvNs-11" style="edgeStyle=orthogonalEdgeStyle;rounded=0;orthogonalLoop=1;jettySize=auto;html=1;" edge="1" parent="1">
          <mxGeometry relative="1" as="geometry">
            <mxPoint x="301.76" y="377" as="targetPoint" />
            <mxPoint x="301.76" y="487" as="sourcePoint" />
          </mxGeometry>
        </mxCell>
        <mxCell id="uKvdMB9yzixYctm72I9Z-6" value="DoadorController" style="swimlane;fontStyle=1;align=center;verticalAlign=top;childLayout=stackLayout;horizontal=1;startSize=26;horizontalStack=0;resizeParent=1;resizeParentMax=0;resizeLast=0;collapsible=1;marginBottom=0;whiteSpace=wrap;html=1;" vertex="1" parent="1">
          <mxGeometry x="423" y="89" width="160" height="60" as="geometry" />
        </mxCell>
        <mxCell id="uKvdMB9yzixYctm72I9Z-8" value="" style="line;strokeWidth=1;fillColor=none;align=left;verticalAlign=middle;spacingTop=-1;spacingLeft=3;spacingRight=3;rotatable=0;labelPosition=right;points=[];portConstraint=eastwest;strokeColor=inherit;" vertex="1" parent="uKvdMB9yzixYctm72I9Z-6">
          <mxGeometry y="26" width="160" height="8" as="geometry" />
        </mxCell>
        <mxCell id="uKvdMB9yzixYctm72I9Z-9" value="+cadastroDoador()" style="text;strokeColor=none;fillColor=none;align=left;verticalAlign=top;spacingLeft=4;spacingRight=4;overflow=hidden;rotatable=0;points=[[0,0.5],[1,0.5]];portConstraint=eastwest;whiteSpace=wrap;html=1;" vertex="1" parent="uKvdMB9yzixYctm72I9Z-6">
          <mxGeometry y="34" width="160" height="26" as="geometry" />
        </mxCell>
        <mxCell id="uKvdMB9yzixYctm72I9Z-10" value="PacienteController" style="swimlane;fontStyle=1;align=center;verticalAlign=top;childLayout=stackLayout;horizontal=1;startSize=26;horizontalStack=0;resizeParent=1;resizeParentMax=0;resizeLast=0;collapsible=1;marginBottom=0;whiteSpace=wrap;html=1;" vertex="1" parent="1">
          <mxGeometry x="640" y="319" width="160" height="60" as="geometry" />
        </mxCell>
        <mxCell id="uKvdMB9yzixYctm72I9Z-12" value="" style="line;strokeWidth=1;fillColor=none;align=left;verticalAlign=middle;spacingTop=-1;spacingLeft=3;spacingRight=3;rotatable=0;labelPosition=right;points=[];portConstraint=eastwest;strokeColor=inherit;" vertex="1" parent="uKvdMB9yzixYctm72I9Z-10">
          <mxGeometry y="26" width="160" height="8" as="geometry" />
        </mxCell>
        <mxCell id="uKvdMB9yzixYctm72I9Z-13" value="+cadastroPaciente()" style="text;strokeColor=none;fillColor=none;align=left;verticalAlign=top;spacingLeft=4;spacingRight=4;overflow=hidden;rotatable=0;points=[[0,0.5],[1,0.5]];portConstraint=eastwest;whiteSpace=wrap;html=1;" vertex="1" parent="uKvdMB9yzixYctm72I9Z-10">
          <mxGeometry y="34" width="160" height="26" as="geometry" />
        </mxCell>
        <mxCell id="uKvdMB9yzixYctm72I9Z-14" value="DoacaoController" style="swimlane;fontStyle=1;align=center;verticalAlign=top;childLayout=stackLayout;horizontal=1;startSize=26;horizontalStack=0;resizeParent=1;resizeParentMax=0;resizeLast=0;collapsible=1;marginBottom=0;whiteSpace=wrap;html=1;" vertex="1" parent="1">
          <mxGeometry x="221.76" y="316" width="160" height="60" as="geometry" />
        </mxCell>
        <mxCell id="uKvdMB9yzixYctm72I9Z-16" value="" style="line;strokeWidth=1;fillColor=none;align=left;verticalAlign=middle;spacingTop=-1;spacingLeft=3;spacingRight=3;rotatable=0;labelPosition=right;points=[];portConstraint=eastwest;strokeColor=inherit;" vertex="1" parent="uKvdMB9yzixYctm72I9Z-14">
          <mxGeometry y="26" width="160" height="8" as="geometry" />
        </mxCell>
        <mxCell id="uKvdMB9yzixYctm72I9Z-17" value="+realizardoacao()" style="text;strokeColor=none;fillColor=none;align=left;verticalAlign=top;spacingLeft=4;spacingRight=4;overflow=hidden;rotatable=0;points=[[0,0.5],[1,0.5]];portConstraint=eastwest;whiteSpace=wrap;html=1;" vertex="1" parent="uKvdMB9yzixYctm72I9Z-14">
          <mxGeometry y="34" width="160" height="26" as="geometry" />
        </mxCell>
        <mxCell id="ApOuU640VELkkD1KpvNs-8" style="edgeStyle=orthogonalEdgeStyle;rounded=0;orthogonalLoop=1;jettySize=auto;html=1;" edge="1" parent="1" source="uKvdMB9yzixYctm72I9Z-18">
          <mxGeometry relative="1" as="geometry">
            <mxPoint x="330" y="860" as="targetPoint" />
          </mxGeometry>
        </mxCell>
        <mxCell id="uKvdMB9yzixYctm72I9Z-18" value="EstoqueController" style="swimlane;fontStyle=1;align=center;verticalAlign=top;childLayout=stackLayout;horizontal=1;startSize=26;horizontalStack=0;resizeParent=1;resizeParentMax=0;resizeLast=0;collapsible=1;marginBottom=0;whiteSpace=wrap;html=1;" vertex="1" parent="1">
          <mxGeometry x="130" y="830" width="160" height="60" as="geometry" />
        </mxCell>
        <mxCell id="uKvdMB9yzixYctm72I9Z-20" value="" style="line;strokeWidth=1;fillColor=none;align=left;verticalAlign=middle;spacingTop=-1;spacingLeft=3;spacingRight=3;rotatable=0;labelPosition=right;points=[];portConstraint=eastwest;strokeColor=inherit;" vertex="1" parent="uKvdMB9yzixYctm72I9Z-18">
          <mxGeometry y="26" width="160" height="8" as="geometry" />
        </mxCell>
        <mxCell id="uKvdMB9yzixYctm72I9Z-21" value="+consultarEstoque()" style="text;strokeColor=none;fillColor=none;align=left;verticalAlign=top;spacingLeft=4;spacingRight=4;overflow=hidden;rotatable=0;points=[[0,0.5],[1,0.5]];portConstraint=eastwest;whiteSpace=wrap;html=1;" vertex="1" parent="uKvdMB9yzixYctm72I9Z-18">
          <mxGeometry y="34" width="160" height="26" as="geometry" />
        </mxCell>
        <mxCell id="ApOuU640VELkkD1KpvNs-3" style="edgeStyle=orthogonalEdgeStyle;rounded=0;orthogonalLoop=1;jettySize=auto;html=1;entryX=-0.011;entryY=0.424;entryDx=0;entryDy=0;entryPerimeter=0;" edge="1" parent="1" source="uKvdMB9yzixYctm72I9Z-6">
          <mxGeometry relative="1" as="geometry">
            <mxPoint x="624.2399999999998" y="104.16000000000008" as="targetPoint" />
          </mxGeometry>
        </mxCell>
        <mxCell id="ApOuU640VELkkD1KpvNs-7" style="edgeStyle=orthogonalEdgeStyle;rounded=0;orthogonalLoop=1;jettySize=auto;html=1;entryX=-0.011;entryY=0.314;entryDx=0;entryDy=0;entryPerimeter=0;" edge="1" parent="1" source="uKvdMB9yzixYctm72I9Z-14">
          <mxGeometry relative="1" as="geometry">
            <mxPoint x="422.9999999999998" y="359.37599999999975" as="targetPoint" />
          </mxGeometry>
        </mxCell>
        <mxCell id="ApOuU640VELkkD1KpvNs-16" style="edgeStyle=orthogonalEdgeStyle;rounded=0;orthogonalLoop=1;jettySize=auto;html=1;entryX=0;entryY=0.413;entryDx=0;entryDy=0;entryPerimeter=0;" edge="1" parent="1" source="uKvdMB9yzixYctm72I9Z-10">
          <mxGeometry relative="1" as="geometry">
            <mxPoint x="860" y="348.95199999999977" as="targetPoint" />
          </mxGeometry>
        </mxCell>
        <mxCell id="ApOuU640VELkkD1KpvNs-21" value="Doador" style="swimlane;fontStyle=1;align=center;verticalAlign=top;childLayout=stackLayout;horizontal=1;startSize=26;horizontalStack=0;resizeParent=1;resizeParentMax=0;resizeLast=0;collapsible=1;marginBottom=0;whiteSpace=wrap;html=1;" vertex="1" parent="1">
          <mxGeometry x="625" y="-120" width="190" height="420" as="geometry" />
        </mxCell>
        <mxCell id="ApOuU640VELkkD1KpvNs-22" value="-nomeDoador: String&lt;div&gt;-idadeDoador: int&lt;/div&gt;&lt;div&gt;-CPFDoador: String&lt;/div&gt;&lt;div&gt;-enderecoDoador: String&lt;/div&gt;&lt;div&gt;-telefoneDoador: String&lt;/div&gt;&lt;div&gt;-tipo_sanguineoDoador: String&lt;/div&gt;" style="text;strokeColor=none;fillColor=none;align=left;verticalAlign=top;spacingLeft=4;spacingRight=4;overflow=hidden;rotatable=0;points=[[0,0.5],[1,0.5]];portConstraint=eastwest;whiteSpace=wrap;html=1;" vertex="1" parent="ApOuU640VELkkD1KpvNs-21">
          <mxGeometry y="26" width="190" height="114" as="geometry" />
        </mxCell>
        <mxCell id="ApOuU640VELkkD1KpvNs-23" value="" style="line;strokeWidth=1;fillColor=none;align=left;verticalAlign=middle;spacingTop=-1;spacingLeft=3;spacingRight=3;rotatable=0;labelPosition=right;points=[];portConstraint=eastwest;strokeColor=inherit;" vertex="1" parent="ApOuU640VELkkD1KpvNs-21">
          <mxGeometry y="140" width="190" height="8" as="geometry" />
        </mxCell>
        <mxCell id="ApOuU640VELkkD1KpvNs-24" value="+getNomeDoador()&lt;br&gt;&lt;div&gt;&lt;span style=&quot;background-color: initial;&quot;&gt;+&lt;/span&gt;setNomeDoador(String nomeDoador)&lt;/div&gt;&lt;div&gt;&lt;span style=&quot;background-color: initial;&quot;&gt;+&lt;/span&gt;getIdadeDoador()&lt;/div&gt;&lt;div&gt;&lt;span style=&quot;background-color: initial;&quot;&gt;+&lt;/span&gt;setIdadeDoador(int idadeDoador)&lt;/div&gt;&lt;div&gt;&lt;span style=&quot;background-color: initial;&quot;&gt;+&lt;/span&gt;getCPFDoador()&lt;/div&gt;&lt;div&gt;&lt;span style=&quot;background-color: initial;&quot;&gt;+&lt;/span&gt;setCPFDoador(String cPFDoador)&lt;/div&gt;&lt;div&gt;&lt;span style=&quot;background-color: initial;&quot;&gt;+&lt;/span&gt;getEnderecoDoador()&lt;/div&gt;&lt;div&gt;&lt;span style=&quot;background-color: initial;&quot;&gt;+&lt;/span&gt;setEnderecoDoador(String enderecoDoador)&lt;/div&gt;&lt;div&gt;&lt;span style=&quot;background-color: initial;&quot;&gt;+&lt;/span&gt;getTelefoneDoador()&lt;/div&gt;&lt;div&gt;&lt;span style=&quot;background-color: initial;&quot;&gt;+&lt;/span&gt;setTelefoneDoador(String telefoneDoador)&lt;/div&gt;&lt;div&gt;&lt;span style=&quot;background-color: initial;&quot;&gt;+&lt;/span&gt;getTipoSanguineoDoador()&lt;/div&gt;&lt;div&gt;&lt;span style=&quot;background-color: initial;&quot;&gt;+&lt;/span&gt;setTipoSanguineoDoador(String tipoSanguineoDoador)&lt;/div&gt;" style="text;strokeColor=none;fillColor=none;align=left;verticalAlign=top;spacingLeft=4;spacingRight=4;overflow=hidden;rotatable=0;points=[[0,0.5],[1,0.5]];portConstraint=eastwest;whiteSpace=wrap;html=1;" vertex="1" parent="ApOuU640VELkkD1KpvNs-21">
          <mxGeometry y="148" width="190" height="272" as="geometry" />
        </mxCell>
        <mxCell id="ApOuU640VELkkD1KpvNs-40" value="Doador" style="swimlane;fontStyle=1;align=center;verticalAlign=top;childLayout=stackLayout;horizontal=1;startSize=26;horizontalStack=0;resizeParent=1;resizeParentMax=0;resizeLast=0;collapsible=1;marginBottom=0;whiteSpace=wrap;html=1;" vertex="1" parent="1">
          <mxGeometry x="860" y="288" width="190" height="430" as="geometry" />
        </mxCell>
        <mxCell id="ApOuU640VELkkD1KpvNs-41" value="-nomePaciente: String&lt;div&gt;-idadePaciente: int&lt;/div&gt;&lt;div&gt;CPFPaciente: String&lt;/div&gt;&lt;div&gt;-enderecoPaciente: String&lt;/div&gt;&lt;div&gt;-telefonePaciente: String&lt;/div&gt;&lt;div&gt;-tipoSanguineoPaciente: String&lt;/div&gt;" style="text;strokeColor=none;fillColor=none;align=left;verticalAlign=top;spacingLeft=4;spacingRight=4;overflow=hidden;rotatable=0;points=[[0,0.5],[1,0.5]];portConstraint=eastwest;whiteSpace=wrap;html=1;" vertex="1" parent="ApOuU640VELkkD1KpvNs-40">
          <mxGeometry y="26" width="190" height="114" as="geometry" />
        </mxCell>
        <mxCell id="ApOuU640VELkkD1KpvNs-42" value="" style="line;strokeWidth=1;fillColor=none;align=left;verticalAlign=middle;spacingTop=-1;spacingLeft=3;spacingRight=3;rotatable=0;labelPosition=right;points=[];portConstraint=eastwest;strokeColor=inherit;" vertex="1" parent="ApOuU640VELkkD1KpvNs-40">
          <mxGeometry y="140" width="190" height="8" as="geometry" />
        </mxCell>
        <mxCell id="ApOuU640VELkkD1KpvNs-43" value="+getNomePaciente()&lt;br&gt;&lt;div&gt;&lt;span style=&quot;background-color: initial;&quot;&gt;+&lt;/span&gt;setNomePaciente(String nomePaciente)&lt;/div&gt;&lt;div&gt;&lt;span style=&quot;background-color: initial;&quot;&gt;+&lt;/span&gt;getIdadePaciente()&lt;/div&gt;&lt;div&gt;&lt;span style=&quot;background-color: initial;&quot;&gt;+&lt;/span&gt;setIdadePaciente(int idadePaciente)&lt;/div&gt;&lt;div&gt;&lt;span style=&quot;background-color: initial;&quot;&gt;+&lt;/span&gt;getCPFPaciente()&lt;/div&gt;&lt;div&gt;&lt;span style=&quot;background-color: initial;&quot;&gt;+&lt;/span&gt;setCPFPaciente(String cPFPaciente)&lt;/div&gt;&lt;div&gt;&lt;span style=&quot;background-color: initial;&quot;&gt;+&lt;/span&gt;getEnderecoPaciente()&lt;/div&gt;&lt;div&gt;&lt;span style=&quot;background-color: initial;&quot;&gt;+&lt;/span&gt;setEnderecoPaciente(String enderecoPaciente)&lt;/div&gt;&lt;div&gt;&lt;span style=&quot;background-color: initial;&quot;&gt;+&lt;/span&gt;getTelefonePaciente()&lt;/div&gt;&lt;div&gt;&lt;span style=&quot;background-color: initial;&quot;&gt;+&lt;/span&gt;setTelefonePaciente(String telefonePaciente)&lt;/div&gt;&lt;div&gt;&lt;span style=&quot;background-color: initial;&quot;&gt;+&lt;/span&gt;getTipoSanguineoPaciente()&lt;/div&gt;&lt;div&gt;&lt;span style=&quot;background-color: initial;&quot;&gt;+&lt;/span&gt;setTipoSanguineoPaciente(String tipoSanguineoPaciente)&lt;/div&gt;" style="text;strokeColor=none;fillColor=none;align=left;verticalAlign=top;spacingLeft=4;spacingRight=4;overflow=hidden;rotatable=0;points=[[0,0.5],[1,0.5]];portConstraint=eastwest;whiteSpace=wrap;html=1;" vertex="1" parent="ApOuU640VELkkD1KpvNs-40">
          <mxGeometry y="148" width="190" height="282" as="geometry" />
        </mxCell>
        <mxCell id="ApOuU640VELkkD1KpvNs-45" value="Doacao" style="swimlane;fontStyle=1;align=center;verticalAlign=top;childLayout=stackLayout;horizontal=1;startSize=26;horizontalStack=0;resizeParent=1;resizeParentMax=0;resizeLast=0;collapsible=1;marginBottom=0;whiteSpace=wrap;html=1;" vertex="1" parent="1">
          <mxGeometry x="423" y="290" width="187" height="280" as="geometry" />
        </mxCell>
        <mxCell id="ApOuU640VELkkD1KpvNs-46" value="-Data: String&lt;div&gt;-Hora: String&lt;/div&gt;&lt;div&gt;-listaDoador: list&amp;lt;Doador&amp;gt;&lt;/div&gt;&lt;div&gt;-listaPaciente: list&amp;lt;Paciente&amp;gt;&lt;/div&gt;" style="text;strokeColor=none;fillColor=none;align=left;verticalAlign=top;spacingLeft=4;spacingRight=4;overflow=hidden;rotatable=0;points=[[0,0.5],[1,0.5]];portConstraint=eastwest;whiteSpace=wrap;html=1;" vertex="1" parent="ApOuU640VELkkD1KpvNs-45">
          <mxGeometry y="26" width="187" height="84" as="geometry" />
        </mxCell>
        <mxCell id="ApOuU640VELkkD1KpvNs-47" value="" style="line;strokeWidth=1;fillColor=none;align=left;verticalAlign=middle;spacingTop=-1;spacingLeft=3;spacingRight=3;rotatable=0;labelPosition=right;points=[];portConstraint=eastwest;strokeColor=inherit;" vertex="1" parent="ApOuU640VELkkD1KpvNs-45">
          <mxGeometry y="110" width="187" height="8" as="geometry" />
        </mxCell>
        <mxCell id="ApOuU640VELkkD1KpvNs-48" value="+getData()&lt;br&gt;&lt;div&gt;&lt;span style=&quot;background-color: initial;&quot;&gt;+&lt;/span&gt;setData(String data)&lt;/div&gt;&lt;div&gt;&lt;span style=&quot;background-color: initial;&quot;&gt;+&lt;/span&gt;getHora()&lt;/div&gt;&lt;div&gt;&lt;span style=&quot;background-color: initial;&quot;&gt;+&lt;/span&gt;setHora(String hora)&lt;/div&gt;&lt;div&gt;&lt;span style=&quot;background-color: initial;&quot;&gt;+&lt;/span&gt;getListaDoador()&lt;/div&gt;&lt;div&gt;&lt;span style=&quot;background-color: initial;&quot;&gt;+&lt;/span&gt;setListaDoador(List&amp;lt;Doador&amp;gt; listaDoador)&lt;/div&gt;&lt;div&gt;&lt;span style=&quot;background-color: initial;&quot;&gt;+&lt;/span&gt;getListaPaciente()&lt;/div&gt;&lt;div&gt;&lt;span style=&quot;background-color: initial;&quot;&gt;+&lt;/span&gt;setListaPaciente(List&amp;lt;Paciente&amp;gt; listaPaciente)&lt;/div&gt;" style="text;strokeColor=none;fillColor=none;align=left;verticalAlign=top;spacingLeft=4;spacingRight=4;overflow=hidden;rotatable=0;points=[[0,0.5],[1,0.5]];portConstraint=eastwest;whiteSpace=wrap;html=1;" vertex="1" parent="ApOuU640VELkkD1KpvNs-45">
          <mxGeometry y="118" width="187" height="162" as="geometry" />
        </mxCell>
        <mxCell id="ApOuU640VELkkD1KpvNs-49" style="edgeStyle=orthogonalEdgeStyle;rounded=0;orthogonalLoop=1;jettySize=auto;html=1;entryX=-0.006;entryY=0.167;entryDx=0;entryDy=0;entryPerimeter=0;" edge="1" parent="1" source="ApOuU640VELkkD1KpvNs-46" target="uKvdMB9yzixYctm72I9Z-13">
          <mxGeometry relative="1" as="geometry" />
        </mxCell>
        <mxCell id="ApOuU640VELkkD1KpvNs-54" value="BolsaDeSangue" style="swimlane;fontStyle=1;align=center;verticalAlign=top;childLayout=stackLayout;horizontal=1;startSize=26;horizontalStack=0;resizeParent=1;resizeParentMax=0;resizeLast=0;collapsible=1;marginBottom=0;whiteSpace=wrap;html=1;" vertex="1" parent="1">
          <mxGeometry x="221.76" y="490" width="168.24" height="240" as="geometry" />
        </mxCell>
        <mxCell id="ApOuU640VELkkD1KpvNs-55" value="-hemocompotentes: String&lt;div&gt;-tipoSanguineo: String&lt;/div&gt;" style="text;strokeColor=none;fillColor=none;align=left;verticalAlign=top;spacingLeft=4;spacingRight=4;overflow=hidden;rotatable=0;points=[[0,0.5],[1,0.5]];portConstraint=eastwest;whiteSpace=wrap;html=1;" vertex="1" parent="ApOuU640VELkkD1KpvNs-54">
          <mxGeometry y="26" width="168.24" height="44" as="geometry" />
        </mxCell>
        <mxCell id="ApOuU640VELkkD1KpvNs-56" value="" style="line;strokeWidth=1;fillColor=none;align=left;verticalAlign=middle;spacingTop=-1;spacingLeft=3;spacingRight=3;rotatable=0;labelPosition=right;points=[];portConstraint=eastwest;strokeColor=inherit;" vertex="1" parent="ApOuU640VELkkD1KpvNs-54">
          <mxGeometry y="70" width="168.24" height="8" as="geometry" />
        </mxCell>
        <mxCell id="ApOuU640VELkkD1KpvNs-57" value="+getHemocomponentes()&lt;br&gt;&lt;div&gt;&lt;span style=&quot;background-color: initial;&quot;&gt;+&lt;/span&gt;setHemocomponentes(String hemocomponentes)&lt;/div&gt;&lt;div&gt;&lt;span style=&quot;background-color: initial;&quot;&gt;+&lt;/span&gt;getTipoSanguineo()&lt;/div&gt;&lt;div&gt;&lt;span style=&quot;background-color: initial;&quot;&gt;+&lt;/span&gt;setTipoSanguineo(String tipoSanguineo)&lt;/div&gt;" style="text;strokeColor=none;fillColor=none;align=left;verticalAlign=top;spacingLeft=4;spacingRight=4;overflow=hidden;rotatable=0;points=[[0,0.5],[1,0.5]];portConstraint=eastwest;whiteSpace=wrap;html=1;" vertex="1" parent="ApOuU640VELkkD1KpvNs-54">
          <mxGeometry y="78" width="168.24" height="162" as="geometry" />
        </mxCell>
        <mxCell id="ApOuU640VELkkD1KpvNs-63" style="edgeStyle=orthogonalEdgeStyle;rounded=0;orthogonalLoop=1;jettySize=auto;html=1;entryX=1;entryY=0.5;entryDx=0;entryDy=0;" edge="1" parent="1" source="ApOuU640VELkkD1KpvNs-59" target="ApOuU640VELkkD1KpvNs-57">
          <mxGeometry relative="1" as="geometry" />
        </mxCell>
        <mxCell id="ApOuU640VELkkD1KpvNs-59" value="Estoque" style="swimlane;fontStyle=1;align=center;verticalAlign=top;childLayout=stackLayout;horizontal=1;startSize=26;horizontalStack=0;resizeParent=1;resizeParentMax=0;resizeLast=0;collapsible=1;marginBottom=0;whiteSpace=wrap;html=1;" vertex="1" parent="1">
          <mxGeometry x="330" y="790" width="270" height="140" as="geometry" />
        </mxCell>
        <mxCell id="ApOuU640VELkkD1KpvNs-60" value="-listaBolsasDeSangue: list&amp;lt;BolsaDeSangue&amp;gt;" style="text;strokeColor=none;fillColor=none;align=left;verticalAlign=top;spacingLeft=4;spacingRight=4;overflow=hidden;rotatable=0;points=[[0,0.5],[1,0.5]];portConstraint=eastwest;whiteSpace=wrap;html=1;" vertex="1" parent="ApOuU640VELkkD1KpvNs-59">
          <mxGeometry y="26" width="270" height="44" as="geometry" />
        </mxCell>
        <mxCell id="ApOuU640VELkkD1KpvNs-61" value="" style="line;strokeWidth=1;fillColor=none;align=left;verticalAlign=middle;spacingTop=-1;spacingLeft=3;spacingRight=3;rotatable=0;labelPosition=right;points=[];portConstraint=eastwest;strokeColor=inherit;" vertex="1" parent="ApOuU640VELkkD1KpvNs-59">
          <mxGeometry y="70" width="270" height="8" as="geometry" />
        </mxCell>
        <mxCell id="ApOuU640VELkkD1KpvNs-62" value="+getListaBolsasDeSangue()&lt;br&gt;&lt;div&gt;&lt;span style=&quot;background-color: initial;&quot;&gt;+&lt;/span&gt;setListaBolsasDeSangue(List&amp;lt;BolsaDeSangue&amp;gt; listaBolsasDeSangue)&lt;/div&gt;" style="text;strokeColor=none;fillColor=none;align=left;verticalAlign=top;spacingLeft=4;spacingRight=4;overflow=hidden;rotatable=0;points=[[0,0.5],[1,0.5]];portConstraint=eastwest;whiteSpace=wrap;html=1;" vertex="1" parent="ApOuU640VELkkD1KpvNs-59">
          <mxGeometry y="78" width="270" height="62" as="geometry" />
        </mxCell>
      </root>
    </mxGraphModel>
  </diagram>
</mxfile>
